<?xml version="1.0" encoding="UTF-8" standalone="no"?>
<svg
   xmlns:dc="http://purl.org/dc/elements/1.1/"
   xmlns:cc="http://creativecommons.org/ns#"
   xmlns:rdf="http://www.w3.org/1999/02/22-rdf-syntax-ns#"
   xmlns:svg="http://www.w3.org/2000/svg"
   xmlns="http://www.w3.org/2000/svg"
   viewBox="0 0 2666.6667 2666.6667"
   height="2666.6667"
   width="2666.6667"
   xml:space="preserve"
   id="svg2"
   version="1.1"><metadata
     id="metadata8"><rdf:RDF><cc:Work
         rdf:about=""><dc:format>image/svg+xml</dc:format><dc:type
           rdf:resource="http://purl.org/dc/dcmitype/StillImage" /></cc:Work></rdf:RDF></metadata><defs
     id="defs6" /><g
     transform="matrix(1.3333333,0,0,-1.3333333,0,2666.6667)"
     id="g10"><g
       transform="scale(0.1)"
       id="g12"><g
         transform="scale(1.22699)"
         id="g14"><path
           id="path16"
           style="fill:#ffffff;fill-opacity:1;fill-rule:nonzero;stroke:none"
           d="M 16300,0 H 0 V 16300 H 16300 V 0" /></g><g
         transform="scale(1.02081)"
         id="g18"><path
           id="path20"
           style="fill:#ffbd1e;fill-opacity:1;fill-rule:nonzero;stroke:none"
           d="m 8286.65,11458 c 0,-24.8 -2.39,-49.3 -6.8,-72.8 -34,-183.6 -195,-322.4 -388.36,-322.4 -252.71,0 -495.49,16.4 -727.81,49.1 -892.87,125.7 -1634.46,491.8 -2210.84,1093.2 -1359.69,1418.3 -1282.69,3623.3 -1278.64,3716.5 8.81,211.5 183.05,378.4 394.78,378.4 h 2459.88 c 205.66,0 374.38,-156.8 393.32,-357.5 1.28,-12.3 1.84,-25 1.84,-37.7 0,-218.1 -176.81,-395.1 -395.16,-395.1 H 4473.88 c 40.61,-628.6 227.72,-1903.4 1052.39,-2760.9 331.01,-344.3 737.01,-590 1213.95,-736.1 346.81,-106.1 731.13,-159.6 1151.27,-159.6 218.17,0 395.16,-176.9 395.16,-395.1" /></g><g
         transform="scale(1.02081)"
         id="g22"><path
           id="path24"
           style="fill:#ffbd1e;fill-opacity:1;fill-rule:nonzero;stroke:none"
           d="m 14639.4,12205.1 c -544,-567.5 -1234.9,-925.6 -2061.2,-1069.7 -277.4,-48.3 -569.9,-72.6 -877.4,-72.6 -193.4,0 -354.4,138.8 -388.4,322.4 -4.4,23.5 -6.8,48 -6.8,72.8 0,218.2 177,395.1 395.2,395.1 484.1,0 920.6,71 1307.1,211.8 410.1,149.4 763.8,377.9 1058.1,683.9 824.7,857.5 1011.8,2132.3 1052.4,2760.9 h -2055 c -218.3,0 -395.1,177 -395.1,395.1 0,12.7 0.6,25.4 1.8,37.7 18.9,200.7 187.6,357.5 393.3,357.5 h 2459.9 c 211.7,0 385.9,-166.9 394.7,-378.4 4.2,-93.2 81.2,-2298.2 -1278.6,-3716.5" /></g><path
         id="path26"
         style="fill:#ffbd1e;fill-opacity:1;fill-rule:nonzero;stroke:none"
         d="m 12264.5,6280.5 v -394 H 7799.25 v 394 c 1572.23,541.5 1891.93,1652.3 1610.51,3059.8 -20.83,104.2 -44.84,210 -72.05,317.3 h 1388.39 c -27.2,-107.3 -51.2,-213.1 -72.1,-317.3 -281.4,-1407.5 38.3,-2518.3 1610.5,-3059.8" /><path
         id="path28"
         style="fill:#db8200;fill-opacity:1;fill-rule:nonzero;stroke:none"
         d="m 9114.45,6280.5 v -394 h -841.47 v 394 C 9574.3,6822 9839.02,7932.8 9606,9340.3 c -17.25,104.2 -37.14,210 -59.66,317.3 h 261.73 c 12.19,-107.3 23.07,-213.1 32.46,-317.3 C 9967.35,7932.8 9823.27,6822 9114.45,6280.5" /><path
         id="path30"
         style="fill:#ffe461;fill-opacity:1;fill-rule:nonzero;stroke:none"
         d="m 11856.8,6294.7 c -179.3,5.3 -358.7,9.2 -538,12.2 -899.1,550.7 -1062.3,1648.5 -897.2,3033.4 12.4,104.2 26.8,210 42.9,317.3 h 145.4 c -22.7,-107.3 -42.7,-213.1 -60,-317.3 -232.3,-1395.3 27.2,-2499 1306.9,-3045.6" /><path
         id="path32"
         style="fill:#db8200;fill-opacity:1;fill-rule:nonzero;stroke:none"
         d="m 10726.1,9657.6 c -27.2,-107.3 -51.2,-213.1 -72.1,-317.3 -76.1,-25.5 -157.6,-39.2 -242.2,-39.2 h -759.83 c -84.62,0 -166.04,13.7 -242.21,39.2 -20.83,104.2 -44.84,210 -72.05,317.3 h 1388.39" /><path
         id="path34"
         style="fill:#ffbd1e;fill-opacity:1;fill-rule:nonzero;stroke:none"
         d="m 11176.4,10520.6 v -286.1 c 0,-55.5 -6,-109.5 -17.3,-161.7 -74.1,-344.7 -380.5,-602.8 -747.3,-602.8 h -759.83 c -381.99,0 -698.31,279.9 -755.35,645.9 -6,38.7 -9.19,78.3 -9.19,118.6 v 286.1 h 2288.97" /><path
         id="path36"
         style="fill:#ffe461;fill-opacity:1;fill-rule:nonzero;stroke:none"
         d="m 11101.3,10520.6 v -286.1 c 0,-55.5 -5.6,-109.5 -16.1,-161.7 -69.3,-344.7 -355.6,-602.8 -698.3,-602.8 h -49.8 c 294.6,0 540.8,258.1 600.2,602.8 9,52.2 13.9,106.2 13.9,161.7 v 286.1 h 150.1" /><path
         id="path38"
         style="fill:#db8200;fill-opacity:1;fill-rule:nonzero;stroke:none"
         d="m 9767.17,9470 h -90.25 c -357.03,0 -652.53,279.9 -705.81,645.9 -5.63,38.7 -8.63,78.3 -8.63,118.6 v 286.1 h 272.04 v -286.1 c 0,-40.3 2.25,-79.9 6.38,-118.6 39.77,-366 260.23,-645.9 526.27,-645.9" /><g
         transform="scale(1.04254)"
         id="g40"><path
           id="path42"
           style="fill:#ffbd1e;fill-opacity:1;fill-rule:nonzero;stroke:none"
           d="m 12988.9,16048.1 c -8.8,-2688.7 -731.2,-6442.66 -3330.39,-6442.66 -2599.17,0 -3321.53,3753.96 -3330.35,6442.66 -0.54,85.1 0,169.1 1.08,251.9 h 6658.56 c 1.1,-82.8 1.6,-166.8 1.1,-251.9" /></g><path
         id="path44"
         style="fill:#db8200;fill-opacity:1;fill-rule:nonzero;stroke:none"
         d="m 11176.4,10520.6 v -286.1 c 0,-55.5 -6,-109.5 -17.3,-161.7 -322.1,-158.5 -683.9,-246.3 -1089.7,-246.3 -441.07,0 -830.19,103.5 -1172.78,289.4 -6,38.7 -9.19,78.3 -9.19,118.6 v 286.1 h 2288.97" /><g
         transform="scale(1.04254)"
         id="g46"><path
           id="path48"
           style="fill:#ffbd1e;fill-opacity:1;fill-rule:nonzero;stroke:none"
           d="m 12988.9,16048.1 c -8.8,-2688.7 -731.2,-6442.66 -3330.39,-6442.66 -2599.17,0 -3321.53,3753.96 -3330.35,6442.66 -0.54,85.1 0,169.1 1.08,251.9 h 6658.56 c 1.1,-82.8 1.6,-166.8 1.1,-251.9" /></g><g
         transform="scale(1.02081)"
         id="g50"><path
           id="path52"
           style="fill:#db8200;fill-opacity:1;fill-rule:nonzero;stroke:none"
           d="m 6528.86,15509.7 h -461.87 c -17.09,296.6 -24.26,564.2 -26.28,790.3 h 488.15 c 205.66,0 374.38,-156.8 393.32,-357.5 1.28,-12.3 1.84,-25 1.84,-37.7 0,-218.1 -176.81,-395.1 -395.16,-395.1" /></g><path
         id="path54"
         style="fill:#db8200;fill-opacity:1;fill-rule:nonzero;stroke:none"
         d="m 8459.1,11696.4 c 0,-25.3 -2.44,-50.2 -6.94,-74.3 -34.71,-187.4 -199.06,-329 -396.44,-329 -257.97,0 -505.81,16.7 -742.96,50.1 -139.4,240.5 -271.3,512.2 -393.06,818.7 -13.32,33.4 -26.27,67 -39.21,100.8 354.03,-108.3 746.34,-162.9 1175.23,-162.9 222.7,0 403.38,-180.7 403.38,-403.4" /><path
         id="path56"
         style="fill:#db8200;fill-opacity:1;fill-rule:nonzero;stroke:none"
         d="m 11944.3,12099.8 c 494.2,0 939.8,72.4 1334.3,216.1 -19.3,-51.5 -39.2,-103 -59.5,-154 -117.8,-296.4 -245,-560.2 -379.1,-794.7 -283.2,-49.4 -581.8,-74.1 -895.7,-74.1 -197.4,0 -361.8,141.6 -396.5,329 -4.5,24.1 -6.9,49 -6.9,74.3 0,222.7 180.7,403.4 403.4,403.4" /><g
         transform="scale(1.02081)"
         id="g58"><path
           id="path60"
           style="fill:#db8200;fill-opacity:1;fill-rule:nonzero;stroke:none"
           d="m 13687.6,16300 c -2,-225.9 -9.3,-493.5 -26.3,-790.3 h -597.9 c -218.3,0 -395.1,177 -395.1,395.1 0,12.7 0.6,25.4 1.8,37.7 18.9,200.7 187.6,357.5 393.3,357.5 h 624.2" /></g><g
         transform="scale(1.04254)"
         id="g62"><path
           id="path64"
           style="fill:#ffbd1e;fill-opacity:1;fill-rule:nonzero;stroke:none"
           d="m 12988.9,16048.1 c -8.8,-2688.7 -731.2,-6442.66 -3330.39,-6442.66 -2599.17,0 -3321.53,3753.96 -3330.35,6442.66 -0.54,85.1 0,169.1 1.08,251.9 h 6658.56 c 1.1,-82.8 1.6,-166.8 1.1,-251.9" /></g><g
         transform="scale(1.04254)"
         id="g66"><path
           id="path68"
           style="fill:#ffe461;fill-opacity:1;fill-rule:nonzero;stroke:none"
           d="m 12223.2,16048.1 c -7.1,-2688.7 -563.1,-6442.66 -2564.69,-6442.66 1461.09,0 1867.09,3753.96 1872.19,6442.66 0.4,85.1 0,169.1 -0.6,251.9 h 692.3 c 0.8,-82.8 1.3,-166.8 0.8,-251.9" /></g><g
         transform="scale(1.04254)"
         id="g70"><path
           id="path72"
           style="fill:#db8200;fill-opacity:1;fill-rule:nonzero;stroke:none"
           d="m 9658.51,9605.44 c -18.32,0 -36.54,0.18 -54.67,0.72 -2300.82,57.94 -2942.57,3774.34 -2950.48,6441.94 -0.55,85.1 0,169.1 0.88,251.9 h 1132.69 c -0.54,-82.8 -0.9,-166.8 -0.54,-251.9 5.04,-2688.7 411.03,-6442.66 1872.12,-6442.66" /></g><g
         transform="scale(1.07362)"
         id="g74"><path
           id="path76"
           style="fill:#ffbd1e;fill-opacity:1;fill-rule:nonzero;stroke:none"
           d="M 12804.1,16160.2 V 15968 c 0,-77.3 -62.5,-139.8 -139.8,-139.8 H 6093.6 c -77.23,0 -139.8,62.5 -139.8,139.8 v 192.2 c 0,77.2 62.57,139.8 139.8,139.8 h 6570.7 c 77.3,0 139.8,-62.6 139.8,-139.8" /></g><g
         transform="scale(1.04254)"
         id="g78"><path
           id="path80"
           style="fill:#db8200;fill-opacity:1;fill-rule:nonzero;stroke:none"
           d="M 12988.9,16048.1 H 6328.16 c -0.54,85.1 0,169.1 1.08,251.9 h 6658.56 c 1.1,-82.8 1.6,-166.8 1.1,-251.9" /></g><path
         id="path82"
         style="fill:#db8200;fill-opacity:1;fill-rule:nonzero;stroke:none"
         d="m 8924.95,5886.5 h -863.04 v 394 h 863.04 v -394" /><path
         id="path84"
         style="fill:#ffe461;fill-opacity:1;fill-rule:nonzero;stroke:none"
         d="m 10100.7,5886.5 h -469.05 v 394 h 469.05 v -394" /><path
         id="path86"
         style="fill:#db8200;fill-opacity:1;fill-rule:nonzero;stroke:none"
         d="m 11220.1,5886.5 h -744.2 v 394 h 744.2 v -394" /><path
         id="path88"
         style="fill:#ffe461;fill-opacity:1;fill-rule:nonzero;stroke:none"
         d="m 12045.7,5886.5 h -394 v 394 h 394 v -394" /><path
         id="path90"
         style="fill:#ffe461;fill-opacity:1;fill-rule:nonzero;stroke:none"
         d="m 12264.5,6280.5 c -124.5,-5.3 -249.1,-9.6 -373.7,-13.3 -175.8,-5.3 -351.8,-9.4 -527.6,-12.4 -71.6,-1.3 -143.3,-2.5 -215,-3.6 -186.1,-3.5 -372,-4.1 -558.1,-6.2 l -558.2,-2 -558.16,2 c -186.12,2.1 -372.05,2.8 -558.17,6.4 -372.04,5.4 -744.28,13.5 -1116.32,29.1 372.04,15.6 744.28,23.6 1116.32,29.1 186.12,3.5 372.05,4.3 558.17,6.3 l 558.16,2.1 558.2,-2.1 c 186.1,-2 372,-2.6 558.1,-6.1 56.9,-0.8 113.7,-1.7 170.6,-2.9 179.3,-3 358.7,-6.9 538,-12.2 135.9,-3.9 271.9,-8.6 407.7,-14.2" /><g
         transform="scale(1.07362)"
         id="g92"><path
           id="path94"
           style="fill:#ffe461;fill-opacity:1;fill-rule:nonzero;stroke:none"
           d="m 12358.5,15828.2 h -611.7 v 471.8 h 611.7 v -471.8" /></g><g
         transform="scale(1.07362)"
         id="g96"><path
           id="path98"
           style="fill:#ffe461;fill-opacity:1;fill-rule:nonzero;stroke:none"
           d="m 9247.89,15828.2 h -428.16 v 471.8 h 428.16 v -471.8" /></g><g
         transform="scale(1.07362)"
         id="g100"><path
           id="path102"
           style="fill:#db8200;fill-opacity:1;fill-rule:nonzero;stroke:none"
           d="m 11135.2,15828.2 h -961.1 v 471.8 h 961.1 v -471.8" /></g><g
         transform="scale(1.07362)"
         id="g104"><path
           id="path106"
           style="fill:#db8200;fill-opacity:1;fill-rule:nonzero;stroke:none"
           d="M 7919.75,15828.2 H 6600.38 v 471.8 h 1319.37 v -471.8" /></g><path
         id="path108"
         style="fill:#474e5e;fill-opacity:1;fill-rule:nonzero;stroke:none"
         d="M 12743.3,5886.5 V 3034.7 H 7273.92 v 2851.8 h 5469.38" /><path
         id="path110"
         style="fill:#2e3545;fill-opacity:1;fill-rule:nonzero;stroke:none"
         d="M 8418.39,5886.5 V 3034.7 h -900.57 v 2851.8 h 900.57" /><path
         id="path112"
         style="fill:#5c6373;fill-opacity:1;fill-rule:nonzero;stroke:none"
         d="M 12348,5886.5 V 3034.7 h -604.7 v 2851.8 h 604.7" /><path
         id="path114"
         style="fill:#474e5e;fill-opacity:1;fill-rule:nonzero;stroke:none"
         d="M 13076.2,2500 H 6941.11 v 534.7 H 13076.2 V 2500" /><path
         id="path116"
         style="fill:#2e3545;fill-opacity:1;fill-rule:nonzero;stroke:none"
         d="M 12743.3,3250.5 V 3034.7 H 7273.92 v 215.8 h 5469.38" /><path
         id="path118"
         style="fill:#2e3545;fill-opacity:1;fill-rule:nonzero;stroke:none"
         d="M 8193.25,2500 H 7192.62 v 534.7 H 8193.25 V 2500" /><path
         id="path120"
         style="fill:#5c6373;fill-opacity:1;fill-rule:nonzero;stroke:none"
         d="m 12227,2500 h -600.4 v 534.7 H 12227 V 2500" /><path
         id="path122"
         style="fill:#2e3545;fill-opacity:1;fill-rule:nonzero;stroke:none"
         d="M 12189.5,3700.8 H 8193.25 V 5333 H 12189.5 V 3700.8" /><path
         id="path124"
         style="fill:#f2dbad;fill-opacity:1;fill-rule:nonzero;stroke:none"
         d="M 12142.6,3747.7 H 8193.25 V 5333 H 12142.6 V 3747.7" /><path
         id="path126"
         style="fill:#e2c89a;fill-opacity:1;fill-rule:nonzero;stroke:none"
         d="m 12142.6,5276.7 v -1529 H 8193.25 v 469 c 2282.65,-620.6 3775.75,173.5 3949.35,1060" /><path
         id="path128"
         style="fill:#f7ead5;fill-opacity:1;fill-rule:nonzero;stroke:none"
         d="m 12142.6,5333 v -56.3 H 8249.53 v -1529 h -56.28 V 5333 h 3949.35" /></g></g></svg>